<?xml version="1.0" encoding="utf-8"?>
<!-- Generator: Adobe Illustrator 27.5.0, SVG Export Plug-In . SVG Version: 6.00 Build 0)  -->
<svg version="1.1" id="Layer_1" xmlns="http://www.w3.org/2000/svg" xmlns:xlink="http://www.w3.org/1999/xlink" x="0px" y="0px"
	 viewBox="0 0 262.2 87.5" style="enable-background:new 0 0 262.2 87.5;" xml:space="preserve">
<g>
	<g>
		<path d="M260.5,44c0,5.9-3.4,11.4-10.3,16.6c-6.8,5.1-16.1,9.6-27.8,13.5c-11.7,3.9-25.4,6.9-41.1,9.1
			c-15.7,2.2-32.4,3.3-50.2,3.3c-18,0-34.9-1.1-50.6-3.3C64.9,81,51.2,78,39.6,74.1c-11.7-3.9-20.9-8.4-27.8-13.5
			C5,55.4,1.5,49.9,1.5,44c0-5.9,3.4-11.4,10.3-16.6c6.8-5.1,16.1-9.6,27.8-13.5C51.2,10,64.9,7,80.6,4.8
			c15.7-2.2,32.6-3.3,50.6-3.3c17.7,0,34.5,1.1,50.2,3.3c15.7,2.2,29.4,5.2,41.1,9.1c11.7,3.9,20.9,8.4,27.8,13.5
			C257.1,32.5,260.5,38.1,260.5,44z"/>
	</g>
</g>
</svg>
